<?xml version="1.0" encoding="UTF-8"?>
<svg width="16px" height="16px" viewBox="0 0 16 16" version="1.1" xmlns="http://www.w3.org/2000/svg" xmlns:xlink="http://www.w3.org/1999/xlink">
    <!-- Generator: Sketch 52.5 (67469) - http://www.bohemiancoding.com/sketch -->
    <title></title>
    <desc>Created with Sketch.</desc>
    <defs>
        <path d="M14.0042306,1.00049469 L1.99985056,1.00049469 C0.897030586,1.00049469 0,1.89752529 0,3.00034524 L0,11.0103008 C0,12.1131208 0.897030601,13.0101514 1.99985056,13.0101514 L5.92567858,13.0101514 L7.99940225,15.5429436 L10.0678493,13.0101514 L13.9989539,13.0101514 C15.1017739,13.0101514 15.9988045,12.1131208 15.9988045,11.0103008 L15.9988045,3.00034524 C16.0040812,1.89752529 15.1070506,1.00049469 14.0042306,1.00049469 Z M3.66199549,8.01843993 C3.12905377,8.01843993 2.69636843,7.58575459 2.69636843,7.05281288 C2.69636843,6.51987117 3.12905377,6.08718582 3.66199549,6.08718582 C4.1949372,6.08718582 4.62762254,6.51987117 4.62762254,7.05281288 C4.62762254,7.58575459 4.1949372,8.01843993 3.66199549,8.01843993 Z M8.00995556,8.01843993 C7.47701384,8.01843993 7.0443285,7.58575459 7.0443285,7.05281288 C7.0443285,6.51987117 7.47701384,6.08718582 8.00995556,6.08718582 C8.54289727,6.08718582 8.97558261,6.51987117 8.97558261,7.05281288 C8.97558261,7.58575459 8.54289727,8.01843993 8.00995556,8.01843993 Z M12.3579156,8.01843993 C11.8249739,8.01843993 11.3922886,7.58575459 11.3922886,7.05281288 C11.3922886,6.51987117 11.8249739,6.08718582 12.3579156,6.08718582 C12.8908573,6.08718582 13.3235427,6.51987117 13.3235427,7.05281288 C13.3235427,7.58575459 12.8908573,8.01843993 12.3579156,8.01843993 Z" id="path-1"></path>
    </defs>
    <g id="icons/16x16/comments" stroke="none" stroke-width="1" fill="none" fill-rule="evenodd">
        <mask id="mask-2" fill="white">
            <use xlink:href="#path-1"></use>
        </mask>
        <use id="Mask" fill="#007FD3" fill-rule="nonzero" xlink:href="#path-1"></use>
    </g>
</svg>